<svg xmlns="http://www.w3.org/2000/svg" viewBox="0 0 250 280"><path d="M32 76c3-18 3-19 1.5-27-2-11-2-18 0-24 3-10 12-15 21-13 4.5 1.2 10 4.7 13 7.4 1 1.2 1.8 1.3 2.7.6 2.4-2 17-7 26-8.6 10-2 36-2.3 48-.5l8.3 1 3.6-3C167-1 182-1 190 7c5.5 5.7 6.7 15 3.8 28l-1.6 7 59 240H1.2zm78 130c8.7-11 21-22 32-29 14-9 21-14 24-20 3.6-5.4 3.5-2.7 0 3.5l-2.3 3.5 4-3.2c5-3.8 14-14 19-23 2.8-4.2 4.3-8.3 5.6-14 1.6-7.7 1.8-8.2 2.2-4.6.3 3.8.4 3.7 2-3.5 4-15 3.2-38-1.3-56-1-4-1.6-5.5-1-3 .3 2.5.5 11 .5 18 0 13-.3 15-2.6 21-3.6 10-8 17-16 26-9 9.6-18 16-30 22-18 9.3-34 22-40 30-2.3 3.8-3.4 4-4.3 1.2 4-20-15-30-30-40-7 0-15-10-22-10-6-10-9-20-11-20l-1.5-5.6.3 8.7c.3 7.7.8 9.7 4 16 2.3 4.7 6.3 10 10 15 6 6.6 6.4 7.2 3.3 5.6-2-1-4.8-3-6.4-4.4-2.5-2.2-2.4-2 .8 2 2 2.6 7 7.3 11 10 24 19 32 29 41 46 4.8 9.6 5.3 10 6.7 8.5l7.8-10zm-4.3-75c7.6-2.8 14-7.3 17-13 3-4.6 3-5 2.8-14-.3-8.7-.6-10-4-17-6.4-13-21-25-31-28-5.7-1.2-10-.3-15 3.2-5.2 3.5-4.8 4.6 1 2.6 9-3 18-2 23 2.7 5.4 5.7 1 13-9.2 16-4.7 1.3-5.8 2-5.8 3.7 0 1.2-.4 2.7-1 3.4-.5 1-1 .4-1.4-2-.4-3-1-3.7-3.7-4.2-4.8-1-7.8-3.3-9.7-7.7l-1.8-4-2.6 5.8c-4 8.7-5 14-4.5 23 .6 9.6 3.5 16 11 22 10 9.2 22 12 36 6.5zm-30-55c1-1-4.4-6.3-6.4-6.3-2.5 0-3.2 3-1.3 5 1.7 2 6.4 2.7 7.7 1.3zm14-1c.7-.7 1.2-2.2 1.2-3.5 0-3.3-4-3-7.4.5-1.5 1.5-2.7 3-2.7 3.5 0 1.2 7.4.8 8.7-.5z" fill="#fff"/></svg>