<!-- Created with Inkscape (http://www.inkscape.org/) -->
<svg xmlns:rdf="http://www.w3.org/1999/02/22-rdf-syntax-ns#" xmlns="http://www.w3.org/2000/svg" version="1.1" xmlns:cc="http://creativecommons.org/ns#" xmlns:dc="http://purl.org/dc/elements/1.1/" viewBox="0 0 330 440">
 <path style="fill:#000000;" d="m88,430c-0.7-1.7-1.2-7.6-1.1-15,0-11,0.3-13,2.8-20,1.6-4.1,4-9.5,5.4-12,3.4-6,15-19,17-19,1.4,0.6,5.3-2.1,4.6-3.1-0.3-0.4,2.9-2.9,7.1-5.7,4.2-2.7,8.5-6.2,9.5-7.7,1.1-1.6,3-5.2,4.1-8.6,4-13-3.1-36-19-60-14-22-24-45-25-79-0.7-34,5.1-50,11-65,2-4.9,3.6-9.8,3.6-11,0-5.4-7.3-9.7-17-9.7-4.5,0-5.9-0.4-8-2.5-3.6-3.6-5.7-4.5-11-4.5-3.9,0-5.1-0.5-8.2-3.5-2-1.9-4-3.6-4.5-3.6-0.4-0.1-3.4-0.2-6.6-0.3-3.6-0.1-6.6-0.7-8.2-1.9-2.9-2-4.9-2.1-8.5-0.5-1.9,0.9-3.4,0.8-6.3-0.1-3.3-1.1-4.3-1.1-7.1,0.4-2.7,1.4-3.8,1.4-6.1,0.5s-3.3-0.9-5.2,0.3c-3,1.9-9.9,3-12,1.8-1.2-0.8-1.2-1.6,0.3-5.6,2.7-6.8,9.5-16,14-20,8.7-6.6,24-10,38-8.9,17,1.4,40,7.4,59,16,18,7.4,21,7.1,28-2.8,30-37,60-61,90-80,30-11,40-14,50-14,11-0.1,18,3.7,21,12,1.4,3.7,1.6,7,1,23-1.3,40-8.9,71-25,100-7.4,15-7.9,14,14,35,9.5,9.3,22,22,29,27,15,13,22,24,26,38,2.7,9.2,1.7,23-2.2,32-3.3,7-7.4,11-12,11-1.5,0-2.4-0.4-2-1,0.3-0.5,0.1-1-0.5-1-0.7,0-0.9-1.2-0.5-3.3,0.5-2.4,0.1-3.9-1.4-5.9-1.4-1.7-2.1-4.1-2.1-6.9,0-3.8-0.5-4.8-4.5-8.5-3.4-3.1-4.5-4.8-4.5-7.1,0-3.7-2.3-6.8-7-9.1-2.3-1.1-4.2-3.2-5.5-5.9-2.9-5.9-6.3-9.2-11-10-7.5-1.9-9.4-3-14-8.8-4.4-5.1-5.7-6-11-7.5-6.8-1.9-12-5.8-13-10-0.6-2-1.8-0.4-8.5,12-4.3,7.8-8.2,14-8.6,15-0.5,0.3-1,1.2-1.2,2-0.5,2.3-16,24-22,31-3.1,3.6-8.5,10-12,15-3.6,4.8-6.8,9.1-12,20-10,19-13,36-13,60,0.7,18-0.2,25-2.9,25-2.9-0.5-6.8,0.7-6,1.9,0.4,0.6,2,0.8,4,0.4,4.3-0.8,4.4,0.3,0.4,8.1-1.6,3.2-2.7,6-2.5,6.2,0.7,0.7,6.5-10,8.2-16,1-3,2.1-5.6,2.4-5.8,0.4-0.2,0.5-2.1,0.2-4.2-0.5-3.6-0.3-4,1.6-4,1.3,0,2.9-0.7,3.7-1.5,1.3-1.2,1.2-1.5-0.5-2.5-1.3-0.7-2.2-0.7-2.6,0-1.2,2-2.1,0.9-1.7-2l0.4-2.9,2.7,1.9c1.9,1.5,4.9,2.1,11,2.5,17,1,29,5.9,40,16,10,11,16,25,14,37-0.9,4.5-2.3,4.6-4.1,0.2-1.6-3.7-4.9-6.6-7.6-6.6-0.9,0-2.1-1.2-2.8-2.6-1.1-2.4-1.5-2.6-5.1-2s-4.3,0.3-6.8-2.5c-2.7-3-3.1-3.1-6.2-2.1-4.4,1.6-4.3,1.6-7.4-1.3-2.9-2.7-4.2-3-7.9-1.6-1.9,0.7-3.7,0.3-8.2-2-3.2-1.6-7.2-2.9-9-2.9-4.4,0-14,5.1-19,10-3.8,3.9-4.3,4.1-8.3,3.6-4.7-0.7-6.9,0.8-7,4.7,0,1.9-0.5,2.1-4.3,1.8-4.1-0.2-4.4-0.1-5.8,3.4-1.4,3.3-1.8,3.6-4.5,3-2.6-0.5-3.2-0.2-4.7,2.4-1.2,2.2-2.4,3-4.2,2.9-4.3-0.2-4.8,0-5.4,2.6-0.4,1.6-1.3,2.5-2.7,2.5-1.3,0-2.3,1-3,3-0.6,1.6-1.8,3.2-2.8,3.5s-2.7,1.9-3.9,3.5c-2.8,3.7-3.9,3.8-5.5,0.3zm140-40c0-0.3-0.5-0.8-1-1.1s-1-0.1-1,0.4c0,0.6,0.5,1.1,1,1.1s1-0.2,1-0.4zm-29-3.2c-0.3-0.3-1.2-0.4-1.9-0.1-0.8,0.3-0.5,0.6,0.6,0.6,1.1,0.1,1.7-0.2,1.3-0.5zm-43-12c0.3-0.5-0.1-1-0.9-1-0.9,0-1.6,0.5-1.6,1,0,0.6,0.4,1,0.9,1,0.6,0,1.3-0.4,1.6-1zm28-5.7c-0.6-0.2-1.8-0.2-2.5,0-0.6,0.3-0.1,0.5,1.3,0.5s1.9-0.2,1.2-0.5zm-49-7.7c0-0.3-0.5-0.8-1-1.1s-1-0.1-1,0.4c0,0.6,0.5,1.1,1,1.1s1-0.2,1-0.4zm11-20c-0.8-0.7-3.7,0.9-3.1,1.9,0.3,0.5,1.2,0.4,2-0.3,0.8-0.6,1.3-1.4,1.1-1.6zm15-13c0-0.2-0.7-0.4-1.5-0.4s-1.5,0.4-1.5,1c0,0.5,0.7,0.7,1.5,0.4,0.8-0.4,1.5-0.8,1.5-1zm-10-50c0.2-2.3,0.7-3.4,1.6-3.1,1.7,0.7,3.8-4.8,5.2-14,1.6-10,3.4-16,8.9-24,5.2-8.3,9.5-12,12-9.6,1.5,1.6,4.4,1,4-0.8-0.1-0.7,0.8-1.1,2-0.9,1.3,0.2,2.3-0.2,2.3-0.7,0-0.6-0.6-1.1-1.4-1.1-2.2,0,0.3-7,2.8-8,2.9-1.1,5.1-3.8,7-8.5,0.9-2.2,3-5.1,4.7-6.5,1.6-1.4,3.1-3.3,3.3-4.2,0.1-0.9,0.9-2.5,1.7-3.5,6.8-7.9,11-17,13-24,1.6-7.3,2.7-10,3.5-13,0.9-2.8,2.4-5.7,3.9-7.4s2.3-4.2,4.1-9.1c0.9-2.6,1.8-6.1,1.9-7.6,0.1-1.6,1-3.6,1.9-4.5,0.9-1,1.7-3.1,1.7-4.7,0-2.3,0.7-3.2,4.1-4.9,2.9-1.6,4.6-3.3,6-6.4,1-2.3,3.2-6,4.9-8.1,3.4-4.2,3.8-8.5,1.9-18-1-4.8-0.9-5.4,1.6-9.1,1.4-2.3,4.9-5.4,7.6-7.1,4.7-3,6-5,3.9-6.3-0.5-0.3-1-1.9-1-3.5,0-2.9-2.2-5-5.4-5-0.8,0-2.6-1.1-4-2.5s-3.1-2.5-3.8-2.5c-0.8,0-2.2-1.9-3.3-4.2s-3.2-5.1-4.7-6.2c-3.4-2.4-5.7-1.6-12,4.4-4,3.7-5.2,4.2-13,5.4-15,2.4-16,3.2-23,11-3.3,3.8-6,7.5-6,8.3,0,1.8-7,9.5-8.7,9.5-0.8,0-2.8,0.7-4.5,1.6-3.1,1.6-3.1,1.7-1.2,3.1s1.9,1.4-0.1,2.9c-1.1,0.8-3,1.7-4.3,2.1-1.2,0.3-2.2,0.9-2.2,1.4,0,0.4-1.4,2.4-3,4.3l-3.1,3.5,3-1.2c1.7-0.6,3.4-0.8,3.8-0.4,0.9,1-0.8,3.8-2.8,4.7-0.8,0.4-2.5,1.3-3.8,2-2.1,1.1-2.6,1-3.7-0.4-1-1.4-1.4-1.4-2-0.4-0.5,0.7-0.7,2.1-0.6,3.1,0.8,4.7-4.9,14-6.7,11-0.6-0.9-1.8-0.1-4.5,3-2,2.3-3.6,4.8-3.6,5.5s-1.5,2-3.3,3c-3.6,1.8-12,11-9.3,10,1.6-0.6,1.7-0.4,1.1,2-0.8,3.4-2.3,5.3-4.1,5.3-0.7,0-1.6,1.6-2,3.8-0.4,2-1.3,4.9-2,6.3-1.2,2.5-1.2,2.7,0.6,2.2,2-0.5,2.6,0.7,2.1,5.2-0.1,1.5,0.1,1.7,1.1,0.7,2.4-2.4,3.1-1.2,2.5,4.7-0.8,6.9-3.5,14-5.1,14-1.7-0.6-1.9-6.3-0.3-12,1.1-3.7,1.2-4.7,0.3-4-0.7,0.6-1.6,0.8-1.9,0.4-1.9-1.9-8.2,8.3-6.6,11,1.6,2.6,0.9,7.6-1.6,11-2.2,3.3-2.3,3.6-0.6,3.6,2.1,0,3.1,1.9,3.1,5.6,0,1.4,0.4,2.3,0.8,2,1.5-0.9,3.2,1,3.8,4.1,0.5,2.4,0.1,3.6-1.6,5.3-1.6,1.6-2,2.8-1.5,5.1,0.4,1.6,1.1,2.6,1.6,2.3,1.5-0.9,3.9,1.6,3.9,4.1,0,2.6-2.4,5-4,4-0.5-0.3-1-0.3-1,0.2,0,1.4,1.4,2.9,3.3,3.6,0.9,0.4,2,2,2.4,3.8,0.4,2,0.8,2.6,1.4,1.8,1.2-2,3.9,0.8,3.9,4.1,0,2.2,1.1,3.6,4.8,6.4,4.6,3.4,5,4,7.1,12,2,7.3,2.1,9.3,1.2,13-0.6,2.4-0.8,6.4-0.4,9,0.5,4.1,0.8,4.6,2.7,4.1,1.2-0.3,3,0.2,4,1,2.5,1.8,3.5,0.8,3.8-3.8zm-28-52c-0.4-0.3-0.7-1.5-0.7-2.5,0-2.6,2.4-1.7,2.8,1,0.3,2.1-0.8,2.9-2.1,1.5zm1.7-11c-0.3-0.8-0.3-1.9,0.1-2.5,1.1-1.8,2.5-1.1,2.5,1.5,0,2.7-1.7,3.4-2.6,1zm-4.4-5.9c0-4.3,2.4-6.6,3.9-3.7,1.4,2.5-0.2,7.1-2.4,7.1-1,0-1.5-1-1.5-3.4zm1.7-7.9c-0.7-1.8,1.6-8,3-8.5,1.7-0.5,1.7,3.8,0.1,7.3-1.2,2.7-2.3,3.2-3.1,1.2zm-4.1-6.6c-1-1.5,0.3-9.6,1.9-12,2-2.7,2.8-1,2,4.6-0.7,5.5-2.7,9.2-3.9,7.2zm11-3.5c0.1-1,0.8-1.7,1.3-1.7,1.5,0.1,1.2,2.4-0.3,2.9-0.9,0.3-1.3-0.2-1-1.2zm-3.9-6.2c0.6-5.6,2.8-10,4.8-10,0.8,0,0.9,1.6,0.4,4.8-1.6,11-6.3,16-5.2,5.6zm6.9-3.1c0.3-3.9,2.2-5.6,3-2.6,0.6,2.4-0.8,6.3-2.2,6.3-0.7,0-1-1.5-0.8-3.7zm-20,0c0-2.8,2.5-6.6,3.6-5.6,1,1.1-0.9,7.1-2.4,7.6-0.7,0.2-1.2-0.6-1.2-2zm18-7.3c0-3.3,1.7-6.5,3.4-6.5,3.6,0,2.4,8.3-1.2,8.8-1.8,0.3-2.2-0.2-2.2-2.3zm-6-1.3c0-1.9,1.2-4.2,2.2-4.2,1.4,0,0.5,4.3-1,4.8-0.6,0.2-1.2-0.1-1.2-0.6zm-11-1c0-0.5,0.7-1.6,1.6-2.3,1.4-1.2,1.6-1.1,1.3,0.5-0.4,2-2.9,3.5-2.9,1.8zm15-5.8c-1.5-1.5-0.6-6.4,1.7-9.1,3.1-3.5,4.3-2.5,2.8,2.5-1.4,4.5-3.5,7.6-4.5,6.6zm5.3-2.2c0-1.8,2.9-5.2,4.3-5.2,1.3,0,0.7,3.9-0.9,5.4-2.1,2.1-3.4,2-3.4-0.2zm-20,0c-1.6-1.6-1.5-7.6,0.1-11,1.4-2.8,4.6-3.8,5.8-1.8,1.4,2.2,1,8.7-0.7,11-1.8,2.7-3.4,3.1-5.2,1.3zm13-3c0-3.2,1.7-4.6,2.6-2.3,0.4,0.9,0,2.4-1,3.3-1.5,1.5-1.6,1.4-1.6-1zm4.4-1.1c-0.6-1.8,1.3-6.7,2.6-6.7,1.6,0,2.3,2.6,1.6,5.5-0.7,2.7-3.3,3.4-4.2,1.2zm-7.4-6.2c0-5.2,5.7-14,9.3-14,1.7,0,1.9,0.5,1.4,4.1-1,7.7-11,16-11,9.4zm12-3.1c-0.9-2.5,1.6-8.5,5-12,5.6-6,8.1-3.5,4.6,4.6-1.2,2.8-3.4,6-4.9,7.1-3.4,2.4-3.9,2.5-4.7,0.4zm-17-2.5c-2-3.1,3.5-14,7.1-14,2.4,0,1.6,4-1.1,5.2-1.4,0.6-2.5,1.5-2.5,2,0,1.3,1.8,0.9,2.3-0.4,0.2-0.7,0.7-1.1,1-0.8s-0.1,2-1,3.8c-1.8,3.7-4.8,5.8-5.8,4.1zm10-13c0-3.9,4.6-11,7.2-11,0.5,0,0.8,0.9,0.8,2,0,1.4-0.7,2-2.3,2.1l-2.2,0.1,2.3,0.6,2.2,0.7-1.9,3.5c-2.2,4.1-6.1,5.4-6.1,2zm19-1.9c0.7-2.7,3.3-3.6,3.3-1.2,0,1-0.7,2.2-1.6,2.5-2.2,0.9-2.3,0.8-1.7-1.3zm-9.2,0.1c-2.7-2.7,7.6-13,13-13,0.8,0,1.8,0.7,2.1,1.7,1.3,3.3-12,14-15,12zm14-4.6c0-2.2,3.5-6,4.9-5.2,0.8,0.5,0.6,1.6-0.9,3.7-2.3,3.1-4,3.8-4,1.5zm-10-10c0-2,6.7-8.9,8.1-8.4,2.5,0.8,2,2.9-1.4,6.3-3.6,3.6-6.7,4.6-6.7,2.1zm11-0.8c0-1.8,3.2-6.5,5.6-8.3,5.2-4,6.1,1,1,6.1-3.4,3.4-6.6,4.5-6.6,2.2zm1.6-10c0.8-2.2,3.6-3,3.2-0.9-0.2,1-1.1,1.9-2.1,2.1-1.2,0.2-1.5-0.1-1.1-1.2zm10-2.4c0-1.5,2.8-4.7,3.5-4,0.8,0.8-1.3,4.8-2.5,4.8-0.6,0-1-0.4-1-0.8zm-6-2.1c0-1.3,2.9-3.5,3.7-2.8,0.7,0.8-1.5,3.7-2.8,3.7-0.5,0-0.9-0.4-0.9-0.9zm20-31c0.5-1.5,5.6-2.9,6.3-1.8s-2.7,3-5,3c-0.9,0-1.5-0.5-1.3-1.2zm8.8-3.3c0-0.3,1.4-1.2,3.1-2,3-1.6,7.1-1.3,5.3,0.4-1,0.9-8.4,2.3-8.4,1.6zm8.6-6.3c-0.7-1.1,1.6-5.4,3.1-6,1.6-0.5,1.7,2.2,0.3,4.9-1.1,2-2.5,2.5-3.4,1.1zm-71,180c1.2-0.8,1.1-1-0.7-1-1.2,0-2.5,0.5-2.8,1-0.8,1.3,1.5,1.3,3.5,0zm16-2.6c-0.3-0.3-1.2-0.4-1.9-0.1-0.8,0.3-0.5,0.6,0.6,0.6,1.1,0.1,1.7-0.2,1.3-0.5zm-5.7-5.4c0-0.5-0.5-1-1-1s-1,0.5-1,1c0,0.6,0.5,1,1,1s1-0.4,1-1zm1.5-8c0.3-0.5-0.3-1-1.5-1s-1.8,0.5-1.5,1c0.3,0.6,1,1,1.5,1s1.2-0.4,1.5-1zm0-6c0.3-0.5-0.1-1-0.9-1-0.9,0-1.6,0.5-1.6,1,0,0.6,0.4,1,0.9,1,0.6,0,1.3-0.4,1.6-1zm170-7.1c0-1.1-1.6-1.1-6-0.3-1.7,0.4-2.7,1-2.1,1.3,1.5,0.9,8.1,0.1,8.1-1zm-86-2.9c0-0.5-0.2-1-0.4-1-0.3,0-0.8,0.5-1.1,1-0.3,0.6-0.1,1,0.4,1,0.6,0,1.1-0.4,1.1-1zm-110-0.6c-0.3-0.3-1.2-0.4-1.9-0.1-0.8,0.3-0.5,0.6,0.6,0.6,1.1,0.1,1.7-0.2,1.3-0.5zm160-14c0.4-0.6-0.7-1-2.4-1s-3.1,0.5-3.1,1c0,0.6,1.1,1,2.4,1,1.4,0,2.8-0.4,3.1-1zm-60-6c0-0.5-0.4-1-0.9-1-0.6,0-1.3,0.5-1.6,1-0.3,0.6,0.1,1,0.9,1,0.9,0,1.6-0.4,1.6-1zm67-1.1c-0.3-0.6-0.1-1.5,0.6-1.9,2-1.2-0.3-1.8-3-0.8-2.4,0.9-2.4,1-0.6,2.4,2.4,1.7,4,1.8,3,0.3zm-33-36c-0.3-0.3-1.2-0.4-1.9-0.1-0.8,0.3-0.5,0.6,0.6,0.6,1.1,0.1,1.7-0.2,1.3-0.5zm-4-41c-0.3-0.3-1.2-0.4-1.9-0.1-0.8,0.3-0.5,0.6,0.6,0.6,1.1,0.1,1.7-0.2,1.3-0.5zm-120-3.8c0-0.3-0.5-0.8-1-1.1s-1-0.1-1,0.4c0,0.6,0.5,1.1,1,1.1s1-0.2,1-0.4zm-5-3.1c0-0.8-0.7-1.5-1.6-1.5-1.4,0-1.4,0.3-0.4,1.5,0.7,0.8,1.4,1.5,1.6,1.5s0.4-0.7,0.4-1.5zm-12-1.5c0.3-0.5-0.1-1-1-1s-1.3,0.5-1,1c0.3,0.6,0.8,1,1,1s0.7-0.4,1-1zm-7.8-4.6c-0.1-0.2-1.3-0.1-2.6,0.3-1.6,0.4-1.9,0.8-1,1.4,1.2,0.7,4.5-0.9,3.6-1.7zm51-3.2c0-0.5-0.7-0.9-1.5-0.9s-1.5,0.4-1.5,0.9c0,0.4,0.7,0.8,1.5,0.8s1.5-0.4,1.5-0.8zm-50-10c1,0,1.8-0.4,1.8-1,0-1.1-3.3-1.3-6.7-0.4-1.3,0.4-2,1.1-1.7,1.6,0.4,0.5,1.6,0.7,2.8,0.4,1.1-0.3,2.9-0.6,3.8-0.6zm22-1c0-0.5-0.2-1-0.4-1-0.3,0-0.8,0.5-1.1,1-0.3,0.6-0.1,1,0.4,1,0.6,0,1.1-0.4,1.1-1zm-56-2.6c-0.3-0.3-1.2-0.4-1.9-0.1-0.8,0.3-0.5,0.6,0.6,0.6,1.1,0.1,1.7-0.2,1.3-0.5zm86,0.2c0-0.3-0.5-0.8-1-1.1s-1-0.1-1,0.4c0,0.6,0.5,1.1,1,1.1s1-0.2,1-0.4zm110-0.6c0.8-1.3-0.5-1.3-2.5,0-1.3,0.8-1.3,1,0.2,1,0.9,0,2-0.4,2.3-1zm-250-2c0.8-1.3-1.5-1.3-3.5,0-1.2,0.8-1.1,1,0.7,1,1.2,0,2.5-0.4,2.8-1zm62,0c0-0.5-0.9-1-1.9-1-1.1,0-2.3-0.4-2.6-1-0.3-0.5-0.1-1,0.5-1s0.8-0.4,0.5-1c-0.8-1.3-7.5-1.3-7.5,0,0,1.2,6.9,4.9,9.2,5,1,0,1.8-0.4,1.8-1zm32-5c1.2-0.8,1.2-1-0.5-1-1.1,0-2.7,0.5-3.5,1-1.2,0.8-1.2,1,0.5,1,1.1,0,2.7-0.5,3.5-1zm54-1.9c0-0.9-2.4-2.1-4.1-2.1-0.5,0-0.9,0.5-0.9,1.1,0,0.5,0.4,0.8,0.9,0.4,0.5-0.3,1.2-0.1,1.6,0.5,0.8,1.2,2.5,1.3,2.5,0.1zm130-8c-0.6-0.2-1.8-0.2-2.5,0-0.6,0.3-0.1,0.5,1.3,0.5s1.9-0.2,1.2-0.5zm-120-14c0-0.2-1.4-0.4-3.1-0.4-1.6,0-2.8,0.4-2.5,0.9,0.5,0.8,5.6,0.3,5.6-0.5zm20-2c-0.3-0.3-1.2-0.4-1.9-0.1-0.8,0.3-0.5,0.6,0.6,0.6,1.1,0.1,1.7-0.2,1.3-0.5zm68-56c0-0.5-0.2-1-0.4-1-0.3,0-0.8,0.5-1.1,1-0.3,0.6-0.1,1,0.4,1,0.6,0,1.1-0.4,1.1-1zm-5.5-5c0.3-0.5,0.1-1-0.4-1-0.6,0-1.1,0.5-1.1,1,0,0.6,0.2,1,0.4,1,0.3,0,0.8-0.4,1.1-1z"/>
</svg>
