<?xml version="1.0" encoding="UTF-8" standalone="no"?>
<!-- Created with Inkscape (http://www.inkscape.org/) -->

<svg
   xmlns:dc="http://purl.org/dc/elements/1.1/"
   xmlns:cc="http://creativecommons.org/ns#"
   xmlns:rdf="http://www.w3.org/1999/02/22-rdf-syntax-ns#"
   xmlns:svg="http://www.w3.org/2000/svg"
   xmlns="http://www.w3.org/2000/svg"
   xmlns:sodipodi="http://sodipodi.sourceforge.net/DTD/sodipodi-0.dtd"
   xmlns:inkscape="http://www.inkscape.org/namespaces/inkscape"
   width="332.8"
   height="436.1"
   id="svg3050"
   version="1.1"
   inkscape:version="0.48.4 r9939"
   sodipodi:docname="td.svg">
  <defs
     id="defs3052" />
  <sodipodi:namedview
     id="base"
     pagecolor="#ffffff"
     bordercolor="#666666"
     borderopacity="1.0"
     inkscape:pageopacity="0.0"
     inkscape:pageshadow="2"
     inkscape:zoom="1.98"
     inkscape:cx="272.4"
     inkscape:cy="139.6"
     inkscape:document-units="px"
     inkscape:current-layer="layer1"
     showgrid="false"
     inkscape:window-width="1920"
     inkscape:window-height="1023"
     inkscape:window-x="0"
     inkscape:window-y="0"
     inkscape:window-maximized="1"
     fit-margin-top="0"
     fit-margin-left="0"
     fit-margin-right="0"
     fit-margin-bottom="0" />
  <metadata
     id="metadata3055">
    <rdf:RDF>
      <cc:Work
         rdf:about="">
        <dc:format>image/svg+xml</dc:format>
        <dc:type
           rdf:resource="http://purl.org/dc/dcmitype/StillImage" />
      </cc:Work>
    </rdf:RDF>
  </metadata>
  <g
     inkscape:label="Layer 1"
     inkscape:groupmode="layer"
     id="layer1"
     transform="translate(-362.2,-288.6)">
    <path
       style="fill:#000000"
       d="m 450.7,722.1 c -0.7,-1.7 -1.2,-7.6 -1.1,-15.3 0,-11.2 0.3,-13.3 2.8,-20 1.6,-4.1 4,-9.5 5.4,-12 3.4,-6 15.2,-19.2 16.6,-18.7 1.4,0.6 5.3,-2.1 4.6,-3.1 -0.3,-0.4 2.9,-2.9 7.1,-5.7 4.2,-2.7 8.5,-6.2 9.5,-7.7 1.1,-1.6 3,-5.2 4.1,-8.6 4,-12.9 -3.1,-35.6 -18.9,-59.7 -14.1,-21.7 -23.8,-45.2 -24.5,-79.1 -0.7,-34 5.1,-49.7 11.1,-64.9 2,-4.9 3.6,-9.8 3.6,-10.8 0,-5.4 -7.3,-9.7 -16.6,-9.7 -4.5,0 -5.9,-0.4 -8,-2.5 -3.6,-3.6 -5.7,-4.5 -10.9,-4.5 -3.9,0 -5.1,-0.5 -8.2,-3.5 -2,-1.9 -4,-3.6 -4.5,-3.6 -0.4,-0.1 -3.4,-0.2 -6.6,-0.3 -3.6,-0.1 -6.6,-0.7 -8.2,-1.9 -2.9,-2 -4.9,-2.1 -8.5,-0.5 -1.9,0.9 -3.4,0.8 -6.3,-0.1 -3.3,-1.1 -4.3,-1.1 -7.1,0.4 -2.7,1.4 -3.8,1.4 -6.1,0.5 -2.3,-0.9 -3.3,-0.9 -5.2,0.3 -3,1.9 -9.9,3 -11.7,1.8 -1.2,-0.8 -1.2,-1.6 0.3,-5.6 2.7,-6.8 9.5,-16.5 14.3,-20.1 8.7,-6.6 23.7,-10.1 37.8,-8.9 17.1,1.4 39.7,7.4 59,15.6 17.5,7.4 20.8,7.1 28.2,-2.8 18.9,-25.3 48.8,-49.5 84.5,-68.2 20.7,-10.9 30.1,-14.2 40.3,-14.3 11.3,-0.1 18,3.7 21.1,11.9 1.4,3.7 1.6,7 1,23.1 -1.3,39.9 -8.9,70.7 -25.3,103.7 -7.4,14.8 -7.9,13.6 13.9,35.1 9.5,9.3 22.5,21.5 29,27.2 14.7,12.8 22.3,23.7 26.3,37.7 2.7,9.2 1.7,23.3 -2.2,31.7 -3.3,7 -7.4,10.8 -11.8,10.8 -1.5,0 -2.4,-0.4 -2,-1 0.3,-0.5 0.1,-1 -0.5,-1 -0.7,0 -0.9,-1.2 -0.5,-3.3 0.5,-2.4 0.1,-3.9 -1.4,-5.9 -1.4,-1.7 -2.1,-4.1 -2.1,-6.9 0,-3.8 -0.5,-4.8 -4.5,-8.5 -3.4,-3.1 -4.5,-4.8 -4.5,-7.1 0,-3.7 -2.3,-6.8 -7,-9.1 -2.3,-1.1 -4.2,-3.2 -5.5,-5.9 -2.9,-5.9 -6.3,-9.2 -10.9,-10.4 -7.5,-1.9 -9.4,-3 -14.5,-8.8 -4.4,-5.1 -5.7,-6 -11.4,-7.5 -6.8,-1.9 -11.8,-5.8 -13.2,-10.5 -0.6,-2 -1.8,-0.4 -8.5,11.9 -4.3,7.8 -8.2,14.5 -8.6,14.9 -0.5,0.3 -1,1.2 -1.2,2 -0.5,2.3 -15.7,24.1 -21.6,31.1 -3.1,3.6 -8.5,10.4 -12.2,15.3 -3.6,4.8 -6.8,9.1 -12.3,19.7 -10,19.4 -13.4,35.7 -12.6,59.5 0.7,17.9 -0.2,25.2 -2.9,24.7 -2.9,-0.5 -6.8,0.7 -6,1.9 0.4,0.6 2,0.8 4,0.4 4.3,-0.8 4.4,0.3 0.4,8.1 -1.6,3.2 -2.7,6 -2.5,6.2 0.7,0.7 6.5,-10.4 8.2,-15.8 1,-3 2.1,-5.6 2.4,-5.8 0.4,-0.2 0.5,-2.1 0.2,-4.2 -0.5,-3.6 -0.3,-4 1.6,-4 1.3,0 2.9,-0.7 3.7,-1.5 1.3,-1.2 1.2,-1.5 -0.5,-2.5 -1.3,-0.7 -2.2,-0.7 -2.6,0 -1.2,2 -2.1,0.9 -1.7,-2 l 0.4,-2.9 2.7,1.9 c 1.9,1.5 4.9,2.1 11.4,2.5 17.4,1 29.4,5.9 39.6,16.3 10.4,10.6 15.8,25.1 13.7,36.6 -0.9,4.5 -2.3,4.6 -4.1,0.2 -1.6,-3.7 -4.9,-6.6 -7.6,-6.6 -0.9,0 -2.1,-1.2 -2.8,-2.6 -1.1,-2.4 -1.5,-2.6 -5.1,-2 -3.6,0.6 -4.3,0.3 -6.8,-2.5 -2.7,-3 -3.1,-3.1 -6.2,-2.1 -4.4,1.6 -4.3,1.6 -7.4,-1.3 -2.9,-2.7 -4.2,-3 -7.9,-1.6 -1.9,0.7 -3.7,0.3 -8.2,-2 -3.2,-1.6 -7.2,-2.9 -9,-2.9 -4.4,0 -13.9,5.1 -18.7,10.1 -3.8,3.9 -4.3,4.1 -8.3,3.6 -4.7,-0.7 -6.9,0.8 -7,4.7 0,1.9 -0.5,2.1 -4.3,1.8 -4.1,-0.2 -4.4,-0.1 -5.8,3.4 -1.4,3.3 -1.8,3.6 -4.5,3 -2.6,-0.5 -3.2,-0.2 -4.7,2.4 -1.2,2.2 -2.4,3 -4.2,2.9 -4.3,-0.2 -4.8,0 -5.4,2.6 -0.4,1.6 -1.3,2.5 -2.7,2.5 -1.3,0 -2.3,1 -3,3 -0.6,1.6 -1.8,3.2 -2.8,3.5 -1,0.3 -2.7,1.9 -3.9,3.5 -2.8,3.7 -3.9,3.8 -5.5,0.3 z M 590,675.4 c 0,-0.3 -0.5,-0.8 -1,-1.1 -0.5,-0.3 -1,-0.1 -1,0.4 0,0.6 0.5,1.1 1,1.1 0.5,0 1,-0.2 1,-0.4 z m -29.3,-3.2 c -0.3,-0.3 -1.2,-0.4 -1.9,-0.1 -0.8,0.3 -0.5,0.6 0.6,0.6 1.1,0.1 1.7,-0.2 1.3,-0.5 z m -43.2,-12.4 c 0.3,-0.5 -0.1,-1 -0.9,-1 -0.9,0 -1.6,0.5 -1.6,1 0,0.6 0.4,1 0.9,1 0.6,0 1.3,-0.4 1.6,-1 z m 27.7,-5.7 c -0.6,-0.2 -1.8,-0.2 -2.5,0 -0.6,0.3 -0.1,0.5 1.3,0.5 1.4,0 1.9,-0.2 1.2,-0.5 z M 496,646.4 c 0,-0.3 -0.5,-0.8 -1,-1.1 -0.5,-0.3 -1,-0.1 -1,0.4 0,0.6 0.5,1.1 1,1.1 0.5,0 1,-0.2 1,-0.4 z m 10.7,-20.3 c -0.8,-0.7 -3.7,0.9 -3.1,1.9 0.3,0.5 1.2,0.4 2,-0.3 0.8,-0.6 1.3,-1.4 1.1,-1.6 z M 522,613.2 c 0,-0.2 -0.7,-0.4 -1.5,-0.4 -0.8,0 -1.5,0.4 -1.5,1 0,0.5 0.7,0.7 1.5,0.4 0.8,-0.4 1.5,-0.8 1.5,-1 z m -5.8,-48.6 c 0.2,-2.3 0.7,-3.4 1.6,-3.1 1.7,0.7 3.8,-4.8 5.2,-14.2 1.6,-10.5 3.4,-15.5 8.9,-24.4 5.2,-8.3 9.5,-11.9 11.8,-9.6 1.5,1.6 4.4,1 4,-0.8 -0.1,-0.7 0.8,-1.1 2,-0.9 1.3,0.2 2.3,-0.2 2.3,-0.7 0,-0.6 -0.6,-1.1 -1.4,-1.1 -2.2,0 0.3,-7 2.8,-8 2.9,-1.1 5.1,-3.8 7,-8.5 0.9,-2.2 3,-5.1 4.7,-6.5 1.6,-1.4 3.1,-3.3 3.3,-4.2 0.1,-0.9 0.9,-2.5 1.7,-3.5 6.8,-7.9 11.2,-17 12.9,-24.2 1.6,-7.3 2.7,-10.1 3.5,-12.9 0.9,-2.8 2.4,-5.7 3.9,-7.4 1.5,-1.7 2.3,-4.2 4.1,-9.1 0.9,-2.6 1.8,-6.1 1.9,-7.6 0.1,-1.6 1,-3.6 1.9,-4.5 0.9,-1 1.7,-3.1 1.7,-4.7 0,-2.3 0.7,-3.2 4.1,-4.9 2.9,-1.6 4.6,-3.3 6,-6.4 1,-2.3 3.2,-6 4.9,-8.1 3.4,-4.2 3.8,-8.5 1.9,-17.5 -1,-4.8 -0.9,-5.4 1.6,-9.1 1.4,-2.3 4.9,-5.4 7.6,-7.1 4.7,-3 6,-5 3.9,-6.3 -0.5,-0.3 -1,-1.9 -1,-3.5 0,-2.9 -2.2,-5 -5.4,-5 -0.8,0 -2.6,-1.1 -4,-2.5 -1.4,-1.4 -3.1,-2.5 -3.8,-2.5 -0.8,0 -2.2,-1.9 -3.3,-4.2 -1.1,-2.3 -3.2,-5.1 -4.7,-6.2 -3.4,-2.4 -5.7,-1.6 -12.2,4.4 -4,3.7 -5.2,4.2 -12.7,5.4 -14.6,2.4 -16.2,3.2 -22.9,10.8 -3.3,3.8 -6,7.5 -6,8.3 0,1.8 -7,9.5 -8.7,9.5 -0.8,0 -2.8,0.7 -4.5,1.6 -3.1,1.6 -3.1,1.7 -1.2,3.1 1.9,1.4 1.9,1.4 -0.1,2.9 -1.1,0.8 -3,1.7 -4.3,2.1 -1.2,0.3 -2.2,0.9 -2.2,1.4 0,0.4 -1.4,2.4 -3,4.3 l -3.1,3.5 3,-1.2 c 1.7,-0.6 3.4,-0.8 3.8,-0.4 0.9,1 -0.8,3.8 -2.8,4.7 -0.8,0.4 -2.5,1.3 -3.8,2 -2.1,1.1 -2.6,1 -3.7,-0.4 -1,-1.4 -1.4,-1.4 -2,-0.4 -0.5,0.7 -0.7,2.1 -0.6,3.1 0.8,4.7 -4.9,13.8 -6.7,10.8 -0.6,-0.9 -1.8,-0.1 -4.5,3 -2,2.3 -3.6,4.8 -3.6,5.5 0,0.7 -1.5,2 -3.3,3 -3.6,1.8 -12.3,11.2 -9.3,10.1 1.6,-0.6 1.7,-0.4 1.1,2 -0.8,3.4 -2.3,5.3 -4.1,5.3 -0.7,0 -1.6,1.6 -2,3.8 -0.4,2 -1.3,4.9 -2,6.3 -1.2,2.5 -1.2,2.7 0.6,2.2 2,-0.5 2.6,0.7 2.1,5.2 -0.1,1.5 0.1,1.7 1.1,0.7 2.4,-2.4 3.1,-1.2 2.5,4.7 -0.8,6.9 -3.5,14.3 -5.1,13.8 -1.7,-0.6 -1.9,-6.3 -0.3,-11.8 1.1,-3.7 1.2,-4.7 0.3,-4 -0.7,0.6 -1.6,0.8 -1.9,0.4 -1.9,-1.9 -8.2,8.3 -6.6,10.8 1.6,2.6 0.9,7.6 -1.6,11.3 -2.2,3.3 -2.3,3.6 -0.6,3.6 2.1,0 3.1,1.9 3.1,5.6 0,1.4 0.4,2.3 0.8,2 1.5,-0.9 3.2,1 3.8,4.1 0.5,2.4 0.1,3.6 -1.6,5.3 -1.6,1.6 -2,2.8 -1.5,5.1 0.4,1.6 1.1,2.6 1.6,2.3 1.5,-0.9 3.9,1.6 3.9,4.1 0,2.6 -2.4,5 -4,4 -0.5,-0.3 -1,-0.3 -1,0.2 0,1.4 1.4,2.9 3.3,3.6 0.9,0.4 2,2 2.4,3.8 0.4,2 0.8,2.6 1.4,1.8 1.2,-2 3.9,0.8 3.9,4.1 0,2.2 1.1,3.6 4.8,6.4 4.6,3.4 5,4 7.1,12.1 2,7.3 2.1,9.3 1.2,13 -0.6,2.4 -0.8,6.4 -0.4,9 0.5,4.1 0.8,4.6 2.7,4.1 1.2,-0.3 3,0.2 4,1 2.5,1.8 3.5,0.8 3.8,-3.8 z m -28.5,-51.5 c -0.4,-0.3 -0.7,-1.5 -0.7,-2.5 0,-2.6 2.4,-1.7 2.8,1 0.3,2.1 -0.8,2.9 -2.1,1.5 z m 1.7,-10.8 c -0.3,-0.8 -0.3,-1.9 0.1,-2.5 1.1,-1.8 2.5,-1.1 2.5,1.5 0,2.7 -1.7,3.4 -2.6,1 z m -4.4,-5.9 c 0,-4.3 2.4,-6.6 3.9,-3.7 1.4,2.5 -0.2,7.1 -2.4,7.1 -1,0 -1.5,-1 -1.5,-3.4 z m 1.7,-7.9 c -0.7,-1.8 1.6,-8 3,-8.5 1.7,-0.5 1.7,3.8 0.1,7.3 -1.2,2.7 -2.3,3.2 -3.1,1.2 z m -4.1,-6.6 c -1,-1.5 0.3,-9.6 1.9,-11.8 2,-2.7 2.8,-1 2,4.6 -0.7,5.5 -2.7,9.2 -3.9,7.2 z m 10.6,-3.5 c 0.1,-1 0.8,-1.7 1.3,-1.7 1.5,0.1 1.2,2.4 -0.3,2.9 -0.9,0.3 -1.3,-0.2 -1,-1.2 z m -3.9,-6.2 c 0.6,-5.6 2.8,-10.4 4.8,-10.4 0.8,0 0.9,1.6 0.4,4.8 -1.6,10.8 -6.3,15.9 -5.2,5.6 z m 6.9,-3.1 c 0.3,-3.9 2.2,-5.6 3,-2.6 0.6,2.4 -0.8,6.3 -2.2,6.3 -0.7,0 -1,-1.5 -0.8,-3.7 z M 481,466.6 c 0,-2.8 2.5,-6.6 3.6,-5.6 1,1.1 -0.9,7.1 -2.4,7.6 -0.7,0.2 -1.2,-0.6 -1.2,-2 z m 18,-7.3 c 0,-3.3 1.7,-6.5 3.4,-6.5 3.6,0 2.4,8.3 -1.2,8.8 -1.8,0.3 -2.2,-0.2 -2.2,-2.3 z m -6,-1.3 c 0,-1.9 1.2,-4.2 2.2,-4.2 1.4,0 0.5,4.3 -1,4.8 -0.6,0.2 -1.2,-0.1 -1.2,-0.6 z m -11,-1 c 0,-0.5 0.7,-1.6 1.6,-2.3 1.4,-1.2 1.6,-1.1 1.3,0.5 -0.4,2 -2.9,3.5 -2.9,1.8 z m 14.7,-5.8 c -1.5,-1.5 -0.6,-6.4 1.7,-9.1 3.1,-3.5 4.3,-2.5 2.8,2.5 -1.4,4.5 -3.5,7.6 -4.5,6.6 z M 502,449 c 0,-1.8 2.9,-5.2 4.3,-5.2 1.3,0 0.7,3.9 -0.9,5.4 -2.1,2.1 -3.4,2 -3.4,-0.2 z m -10.8,-5.4 c -1.6,-1.6 -1.5,-7.6 0.1,-10.8 1.4,-2.8 4.6,-3.8 5.8,-1.8 1.4,2.2 1,8.7 -0.7,11.3 -1.8,2.7 -3.4,3.1 -5.2,1.3 z m 12.8,-3 c 0,-3.2 1.7,-4.6 2.6,-2.3 0.4,0.9 0,2.4 -1,3.3 -1.5,1.5 -1.6,1.4 -1.6,-1 z m 4.4,-1.1 c -0.6,-1.8 1.3,-6.7 2.6,-6.7 1.6,0 2.3,2.6 1.6,5.5 -0.7,2.7 -3.3,3.4 -4.2,1.2 z m -7.4,-6.2 c 0,-5.2 5.7,-13.5 9.3,-13.5 1.7,0 1.9,0.5 1.4,4.1 -1,7.7 -10.7,16.2 -10.7,9.4 z m 12.3,-3.1 c -0.9,-2.5 1.6,-8.5 5,-12.1 5.6,-6 8.1,-3.5 4.6,4.6 -1.2,2.8 -3.4,6 -4.9,7.1 -3.4,2.4 -3.9,2.5 -4.7,0.4 z m -16.8,-2.5 c -2,-3.1 3.5,-13.9 7.1,-13.9 2.4,0 1.6,4 -1.1,5.2 -1.4,0.6 -2.5,1.5 -2.5,2 0,1.3 1.8,0.9 2.3,-0.4 0.2,-0.7 0.7,-1.1 1,-0.8 0.3,0.3 -0.1,2 -1,3.8 -1.8,3.7 -4.8,5.8 -5.8,4.1 z M 507,414.8 c 0,-3.9 4.6,-10.9 7.2,-11 0.5,0 0.8,0.9 0.8,2 0,1.4 -0.7,2 -2.3,2.1 l -2.2,0.1 2.3,0.6 2.2,0.7 -1.9,3.5 c -2.2,4.1 -6.1,5.4 -6.1,2 z m 18.7,-1.9 c 0.7,-2.7 3.3,-3.6 3.3,-1.2 0,1 -0.7,2.2 -1.6,2.5 -2.2,0.9 -2.3,0.8 -1.7,-1.3 z m -9.2,0.1 c -2.7,-2.7 7.6,-13.2 12.8,-13.2 0.8,0 1.8,0.7 2.1,1.7 1.3,3.3 -12.4,14 -14.9,11.5 z m 14.5,-4.6 c 0,-2.2 3.5,-6 4.9,-5.2 0.8,0.5 0.6,1.6 -0.9,3.7 -2.3,3.1 -4,3.8 -4,1.5 z m -10,-10 c 0,-2 6.7,-8.9 8.1,-8.4 2.5,0.8 2,2.9 -1.4,6.3 -3.6,3.6 -6.7,4.6 -6.7,2.1 z m 11,-0.8 c 0,-1.8 3.2,-6.5 5.6,-8.3 5.2,-4 6.1,1 1,6.1 -3.4,3.4 -6.6,4.5 -6.6,2.2 z m 1.6,-10.2 c 0.8,-2.2 3.6,-3 3.2,-0.9 -0.2,1 -1.1,1.9 -2.1,2.1 -1.2,0.2 -1.5,-0.1 -1.1,-1.2 z M 544,385 c 0,-1.5 2.8,-4.7 3.5,-4 0.8,0.8 -1.3,4.8 -2.5,4.8 -0.6,0 -1,-0.4 -1,-0.8 z m -6,-2.1 c 0,-1.3 2.9,-3.5 3.7,-2.8 0.7,0.8 -1.5,3.7 -2.8,3.7 -0.5,0 -0.9,-0.4 -0.9,-0.9 z m -4.8,-5.3 c 0.5,-1.5 5.6,-2.9 6.3,-1.8 0.7,1.1 -2.7,3 -5,3 -0.9,0 -1.5,-0.5 -1.3,-1.2 z m 8.8,-3.3 c 0,-0.3 1.4,-1.2 3.1,-2 3,-1.6 7.1,-1.3 5.3,0.4 -1,0.9 -8.4,2.3 -8.4,1.6 z m 8.6,-6.3 c -0.7,-1.1 1.6,-5.4 3.1,-6 1.6,-0.5 1.7,2.2 0.3,4.9 -1.1,2 -2.5,2.5 -3.4,1.1 z M 480,543.8 c 1.2,-0.8 1.1,-1 -0.7,-1 -1.2,0 -2.5,0.5 -2.8,1 -0.8,1.3 1.5,1.3 3.5,0 z m 15.7,-2.6 c -0.3,-0.3 -1.2,-0.4 -1.9,-0.1 -0.8,0.3 -0.5,0.6 0.6,0.6 1.1,0.1 1.7,-0.2 1.3,-0.5 z m -5.7,-5.4 c 0,-0.5 -0.5,-1 -1,-1 -0.5,0 -1,0.5 -1,1 0,0.6 0.5,1 1,1 0.5,0 1,-0.4 1,-1 z m 1.5,-8 c 0.3,-0.5 -0.3,-1 -1.5,-1 -1.2,0 -1.8,0.5 -1.5,1 0.3,0.6 1,1 1.5,1 0.5,0 1.2,-0.4 1.5,-1 z m 0,-6 c 0.3,-0.5 -0.1,-1 -0.9,-1 -0.9,0 -1.6,0.5 -1.6,1 0,0.6 0.4,1 0.9,1 0.6,0 1.3,-0.4 1.6,-1 z M 665,514.7 c 0,-1.1 -1.6,-1.1 -6,-0.3 -1.7,0.4 -2.7,1 -2.1,1.3 1.5,0.9 8.1,0.1 8.1,-1 z m -86,-2.9 c 0,-0.5 -0.2,-1 -0.4,-1 -0.3,0 -0.8,0.5 -1.1,1 -0.3,0.6 -0.1,1 0.4,1 0.6,0 1.1,-0.4 1.1,-1 z m -106.3,-0.6 c -0.3,-0.3 -1.2,-0.4 -1.9,-0.1 -0.8,0.3 -0.5,0.6 0.6,0.6 1.1,0.1 1.7,-0.2 1.3,-0.5 z m 163.8,-14.4 c 0.4,-0.6 -0.7,-1 -2.4,-1 -1.7,0 -3.1,0.5 -3.1,1 0,0.6 1.1,1 2.4,1 1.4,0 2.8,-0.4 3.1,-1 z m -59.5,-6 c 0,-0.5 -0.4,-1 -0.9,-1 -0.6,0 -1.3,0.5 -1.6,1 -0.3,0.6 0.1,1 0.9,1 0.9,0 1.6,-0.4 1.6,-1 z m 67.4,-1.1 c -0.3,-0.6 -0.1,-1.5 0.6,-1.9 2,-1.2 -0.3,-1.8 -3,-0.8 -2.4,0.9 -2.4,1 -0.6,2.4 2.4,1.7 4,1.8 3,0.3 z m -32.7,-35.5 c -0.3,-0.3 -1.2,-0.4 -1.9,-0.1 -0.8,0.3 -0.5,0.6 0.6,0.6 1.1,0.1 1.7,-0.2 1.3,-0.5 z m -4,-41 c -0.3,-0.3 -1.2,-0.4 -1.9,-0.1 -0.8,0.3 -0.5,0.6 0.6,0.6 1.1,0.1 1.7,-0.2 1.3,-0.5 z M 491,409.4 c 0,-0.3 -0.5,-0.8 -1,-1.1 -0.5,-0.3 -1,-0.1 -1,0.4 0,0.6 0.5,1.1 1,1.1 0.5,0 1,-0.2 1,-0.4 z m -5,-3.1 c 0,-0.8 -0.7,-1.5 -1.6,-1.5 -1.4,0 -1.4,0.3 -0.4,1.5 0.7,0.8 1.4,1.5 1.6,1.5 0.2,0 0.4,-0.7 0.4,-1.5 z m -11.5,-1.5 c 0.3,-0.5 -0.1,-1 -1,-1 -0.9,0 -1.3,0.5 -1,1 0.3,0.6 0.8,1 1,1 0.2,0 0.7,-0.4 1,-1 z m -7.8,-4.6 c -0.1,-0.2 -1.3,-0.1 -2.6,0.3 -1.6,0.4 -1.9,0.8 -1,1.4 1.2,0.7 4.5,-0.9 3.6,-1.7 z M 518,397 c 0,-0.5 -0.7,-0.9 -1.5,-0.9 -0.8,0 -1.5,0.4 -1.5,0.9 0,0.4 0.7,0.8 1.5,0.8 0.8,0 1.5,-0.4 1.5,-0.8 z m -54.8,-1.2 c 1,0 1.8,-0.4 1.8,-1 0,-1.1 -3.3,-1.3 -6.7,-0.4 -1.3,0.4 -2,1.1 -1.7,1.6 0.4,0.5 1.6,0.7 2.8,0.4 1.1,-0.3 2.9,-0.6 3.8,-0.6 z m 21.8,-1 c 0,-0.5 -0.2,-1 -0.4,-1 -0.3,0 -0.8,0.5 -1.1,1 -0.3,0.6 -0.1,1 0.4,1 0.6,0 1.1,-0.4 1.1,-1 z m -56.3,-2.6 c -0.3,-0.3 -1.2,-0.4 -1.9,-0.1 -0.8,0.3 -0.5,0.6 0.6,0.6 1.1,0.1 1.7,-0.2 1.3,-0.5 z m 86.3,0.2 c 0,-0.3 -0.5,-0.8 -1,-1.1 -0.5,-0.3 -1,-0.1 -1,0.4 0,0.6 0.5,1.1 1,1.1 0.5,0 1,-0.2 1,-0.4 z m 109.5,-0.6 c 0.8,-1.3 -0.5,-1.3 -2.5,0 -1.3,0.8 -1.3,1 0.2,1 0.9,0 2,-0.4 2.3,-1 z m -252,-2 c 0.8,-1.3 -1.5,-1.3 -3.5,0 -1.2,0.8 -1.1,1 0.7,1 1.2,0 2.5,-0.4 2.8,-1 z m 62.5,0 c 0,-0.5 -0.9,-1 -1.9,-1 -1.1,0 -2.3,-0.4 -2.6,-1 -0.3,-0.5 -0.1,-1 0.5,-1 0.6,0 0.8,-0.4 0.5,-1 -0.8,-1.3 -7.5,-1.3 -7.5,0 0,1.2 6.9,4.9 9.2,5 1,0 1.8,-0.4 1.8,-1 z m 32,-5 c 1.2,-0.8 1.2,-1 -0.5,-1 -1.1,0 -2.7,0.5 -3.5,1 -1.2,0.8 -1.2,1 0.5,1 1.1,0 2.7,-0.5 3.5,-1 z m 54,-1.9 c 0,-0.9 -2.4,-2.1 -4.1,-2.1 -0.5,0 -0.9,0.5 -0.9,1.1 0,0.5 0.4,0.8 0.9,0.4 0.5,-0.3 1.2,-0.1 1.6,0.5 0.8,1.2 2.5,1.3 2.5,0.1 z m 118.2,-4.8 c -0.6,-0.2 -1.8,-0.2 -2.5,0 -0.6,0.3 -0.1,0.5 1.3,0.5 1.4,0 1.9,-0.2 1.2,-0.5 z M 525,364.2 c 0,-0.2 -1.4,-0.4 -3.1,-0.4 -1.6,0 -2.8,0.4 -2.5,0.9 0.5,0.8 5.6,0.3 5.6,-0.5 z m 19.7,-2 c -0.3,-0.3 -1.2,-0.4 -1.9,-0.1 -0.8,0.3 -0.5,0.6 0.6,0.6 1.1,0.1 1.7,-0.2 1.3,-0.5 z M 613,305.8 c 0,-0.5 -0.2,-1 -0.4,-1 -0.3,0 -0.8,0.5 -1.1,1 -0.3,0.6 -0.1,1 0.4,1 0.6,0 1.1,-0.4 1.1,-1 z m -5.5,-5 c 0.3,-0.5 0.1,-1 -0.4,-1 -0.6,0 -1.1,0.5 -1.1,1 0,0.6 0.2,1 0.4,1 0.3,0 0.8,-0.4 1.1,-1 z"
       id="path3018"
       inkscape:connector-curvature="0"
       sodipodi:nodetypes="ccccccccccccsssscccccccscsccccccccccccccscsccscsccccccccccssccsccscccscccsccccccscscccccscccccccccscsccssssscccccssscccscssssscsccssscscccccccsscccccccccccsccsccccsssssccccsscsccscccccccccccscccsccccscccccccssccscsscscccsccccccccsccscssscssccccccccccsccsccccscsccssscssssssccssccssscsssccssccscsccsscsccccccscscsccscscccccscsccsscssccsscssscsssccsssssscsscsscsccscccccsccccccssssscscsccssscsccssscsscccccssscsscsscccccccccccccssssssscsscscscccccssssssscccssscssccccsssssccscccscsscscscscscscssscssccscsscsccccsscsscsssc" />
  </g>
</svg>
